<svg width="30" height="30" viewBox="0 0 30 30" fill="none" xmlns="http://www.w3.org/2000/svg">
<path d="M28.187 4.55051L24.0403 0.403828C23.7798 0.143438 23.4336 0 23.0653 0H5.60608C4.84582 0 4.22725 0.618574 4.22725 1.37883V15.0302H3.25764C2.23834 15.0302 1.40912 15.8595 1.40912 16.8787V25.3332C1.40912 26.3525 2.23834 27.1818 3.25764 27.1818H17.8182C18.5785 27.1818 19.197 26.5632 19.197 25.803V19.2273C19.197 18.467 18.5784 17.8484 17.8182 17.8484H3.25764C2.72297 17.8484 2.28803 17.4135 2.28803 16.8788C2.28803 16.3441 2.72297 15.9092 3.25764 15.9092H4.22725V16.4093C4.22725 16.652 4.424 16.8488 4.6667 16.8488C4.9094 16.8488 5.10615 16.652 5.10615 16.4093V1.37883C5.10615 1.10314 5.33045 0.878906 5.60608 0.878906H22.5454V5.13639C22.5454 5.63771 22.9532 6.04559 23.4545 6.04559H27.712V28.6212C27.712 28.8969 27.4877 29.1211 27.212 29.1211H5.60608C5.33039 29.1211 5.10615 28.8969 5.10615 28.6212C5.10615 28.3785 4.9094 28.1817 4.6667 28.1817C4.424 28.1817 4.22725 28.3785 4.22725 28.6212C4.22725 29.3815 4.84582 30 5.60608 30H27.212C27.9724 30 28.5909 29.3814 28.5909 28.6212V5.52551C28.5909 5.15725 28.4475 4.81096 28.187 4.55051ZM3.25764 18.7273H17.8182C18.0939 18.7273 18.3181 18.9516 18.3181 19.2273V25.803C18.3181 26.0787 18.0938 26.303 17.8182 26.303H3.25764C2.72297 26.303 2.28803 25.868 2.28803 25.3333V18.4521C2.57004 18.6266 2.90227 18.7273 3.25764 18.7273ZM23.4243 5.13639V1.03084L27.5602 5.16668H23.4545C23.4379 5.16668 23.4243 5.15309 23.4243 5.13639Z" fill="#BE4073"/>
<path d="M13.8616 24.8194C14.1043 24.8194 14.301 24.6227 14.301 24.38V22.9191H15.2532C15.4959 22.9191 15.6927 22.7223 15.6927 22.4796C15.6927 22.2369 15.4959 22.0402 15.2532 22.0402H14.301V21.0894H15.3734C15.6161 21.0894 15.8128 20.8926 15.8128 20.6499C15.8128 20.4071 15.6161 20.2104 15.3734 20.2104H13.8616C13.6189 20.2104 13.4221 20.4071 13.4221 20.6499V24.3799C13.4221 24.6226 13.6189 24.8194 13.8616 24.8194Z" fill="#BE4073"/>
<path d="M9.24258 24.6502C9.32491 24.7319 9.43623 24.7778 9.55219 24.7778H9.55383C9.58506 24.7776 10.3213 24.7748 10.6154 24.7697C11.7013 24.7507 12.4895 23.8025 12.4895 22.5151C12.4895 21.1618 11.7212 20.2524 10.5775 20.2524H9.54481C9.42809 20.2524 9.31623 20.2988 9.23379 20.3815C9.15135 20.4641 9.10512 20.5761 9.10536 20.6927V20.6956V20.6956V24.2791C9.10536 24.3092 9.1084 24.3387 9.1142 24.3672C9.12123 24.4738 9.16635 24.5746 9.24258 24.6502ZM10.5775 21.1313C11.3392 21.1313 11.6106 21.8461 11.6106 22.5151C11.6106 23.4533 11.1031 23.8821 10.6 23.8909C10.4602 23.8933 10.2108 23.8953 9.99012 23.8966C9.98871 23.4655 9.98578 21.5798 9.98502 21.1313H10.5775Z" fill="#BE4073"/>
<path d="M5.59248 24.8333C5.83518 24.8333 6.03194 24.6366 6.03194 24.3938V23.1988C6.25014 23.1976 6.49823 23.1965 6.63873 23.1965C7.47721 23.1965 8.15936 22.5237 8.15936 21.6967C8.15936 20.8696 7.47721 20.1968 6.63873 20.1968H5.59248C5.47571 20.1968 5.36373 20.2433 5.28123 20.326C5.19909 20.4084 5.15309 20.52 5.15309 20.6362H5.15303V24.3938C5.15303 24.6366 5.34979 24.8333 5.59248 24.8333ZM6.63873 21.0757C6.9866 21.0757 7.28045 21.3602 7.28045 21.6967C7.28045 22.0333 6.9866 22.3176 6.63873 22.3176C6.49916 22.3176 6.25418 22.3188 6.0368 22.3199C6.03563 22.0954 6.03387 21.3106 6.03323 21.0758H6.63873V21.0757Z" fill="#BE4073"/>
<path d="M13.8251 12.7419C12.745 13.0828 11.6365 13.5546 11.0452 14.165C10.5572 14.6686 10.4688 15.2529 10.8025 15.7681C11.029 16.1178 11.3403 16.3005 11.6903 16.3005C11.8247 16.3005 11.9648 16.2736 12.1079 16.2188C12.6243 16.0214 13.182 15.4596 13.8129 14.5015C14.0166 14.1921 14.2228 13.8484 14.428 13.4765C14.5027 13.4545 14.5789 13.4326 14.6568 13.4109C15.897 13.0639 17.3001 12.812 18.5315 12.7068C19.2821 13.4326 20.058 13.9982 20.7195 14.1525C21.4472 14.3222 22.0241 13.9895 22.2624 13.2623C22.4067 12.8219 22.2405 12.4066 21.8178 12.1514C21.3831 11.8889 20.6278 11.7622 19.5733 11.7743C19.3487 11.7768 19.1116 11.786 18.865 11.8013C18.3912 11.3127 17.8983 10.7288 17.4237 10.084C17.0559 9.5845 16.7272 9.08464 16.4493 8.6095C16.4795 8.50538 16.5082 8.40267 16.5354 8.30177C16.8359 7.18773 16.943 6.33478 16.8539 5.76653C16.7252 4.94593 16.1955 4.82939 15.9738 4.81743C15.2188 4.77659 14.7103 5.15751 14.6136 5.83632C14.5367 6.37556 14.718 7.11747 15.1525 8.04138C15.2558 8.26099 15.3717 8.48734 15.4989 8.71849C15.4515 8.8706 15.4001 9.02886 15.3444 9.19357C14.9393 10.392 14.3906 11.6691 13.8251 12.7419ZM11.7147 15.4193C11.6834 15.4232 11.6305 15.4298 11.5402 15.2903C11.4666 15.1767 11.4626 15.0911 11.5254 14.9741C11.6721 14.7006 12.173 14.3168 13.1423 13.9204C12.4658 14.9697 11.9602 15.3886 11.7147 15.4193ZM21.4345 12.9587C21.4338 12.9642 21.4321 12.9739 21.4272 12.9887C21.3175 13.3236 21.17 13.3552 20.9191 13.2967C20.6129 13.2252 20.224 12.999 19.7902 12.6528C20.9648 12.6621 21.3747 12.8738 21.4345 12.9587ZM15.4836 5.96042C15.5016 5.8348 15.5217 5.69353 15.856 5.69353C15.877 5.69353 15.8994 5.69411 15.9229 5.69523C16.023 5.81716 16.0745 6.35968 15.8429 7.43335C15.5702 6.80786 15.4369 6.28825 15.4836 5.96042ZM16.0956 9.71066C16.2885 10.0071 16.496 10.3064 16.7159 10.6051C17.0313 11.0337 17.3877 11.4786 17.7646 11.9033C17.3286 11.9559 16.8788 12.0238 16.4289 12.1055C16.1244 12.1608 15.5936 12.265 14.9723 12.42C15.1101 12.1342 15.246 11.838 15.3789 11.5334C15.6432 10.9282 15.8862 10.309 16.0956 9.71066Z" fill="#BE4073"/>
</svg>
