<svg width="30" height="30" viewBox="0 0 30 30" fill="none" xmlns="http://www.w3.org/2000/svg">
<path d="M28.1871 4.55051L24.0403 0.403828C23.7799 0.143438 23.4336 0 23.0653 0H5.60613C4.84588 0 4.2273 0.618574 4.2273 1.37883V15.0302H3.2577C2.2384 15.0302 1.40918 15.8595 1.40918 16.8787V25.3332C1.40918 26.3525 2.2384 27.1818 3.2577 27.1818H17.8182C18.5786 27.1818 19.1971 26.5632 19.1971 25.803V19.2273C19.1971 18.467 18.5785 17.8484 17.8182 17.8484H3.2577C2.72303 17.8484 2.28809 17.4135 2.28809 16.8788C2.28809 16.3441 2.72303 15.9092 3.2577 15.9092H4.2273V16.4093C4.2273 16.652 4.42406 16.8488 4.66676 16.8488C4.90945 16.8488 5.10621 16.652 5.10621 16.4093V1.37883C5.10621 1.10314 5.33051 0.878906 5.60613 0.878906H22.5454V5.13639C22.5454 5.63771 22.9532 6.04559 23.4545 6.04559H27.712V28.6212C27.712 28.8969 27.4877 29.1211 27.2121 29.1211H5.60613C5.33045 29.1211 5.10621 28.8969 5.10621 28.6212C5.10621 28.3785 4.90945 28.1817 4.66676 28.1817C4.42406 28.1817 4.2273 28.3785 4.2273 28.6212C4.2273 29.3815 4.84588 30 5.60613 30H27.2121C27.9724 30 28.5909 29.3814 28.5909 28.6212V5.52551C28.591 5.15725 28.4476 4.81096 28.1871 4.55051ZM3.2577 18.7273H17.8182C18.0939 18.7273 18.3182 18.9516 18.3182 19.2273V25.803C18.3182 26.0787 18.0939 26.303 17.8182 26.303H3.2577C2.72303 26.303 2.28809 25.868 2.28809 25.3333V18.4521C2.5701 18.6266 2.90232 18.7273 3.2577 18.7273ZM23.4243 5.13639V1.03084L27.5603 5.16668H23.4545C23.4379 5.16668 23.4243 5.15309 23.4243 5.13639Z" fill="white"/>
<path d="M13.8618 24.8196C14.1045 24.8196 14.3013 24.6228 14.3013 24.3801V22.9192H15.2535C15.4962 22.9192 15.6929 22.7224 15.6929 22.4797C15.6929 22.237 15.4962 22.0403 15.2535 22.0403H14.3013V21.0895H15.3736C15.6163 21.0895 15.813 20.8927 15.813 20.65C15.813 20.4073 15.6163 20.2106 15.3736 20.2106H13.8618C13.6191 20.2106 13.4224 20.4073 13.4224 20.65V24.38C13.4224 24.6227 13.6191 24.8196 13.8618 24.8196Z" fill="white"/>
<path d="M9.2427 24.6502C9.32502 24.7319 9.43635 24.7778 9.55231 24.7778H9.55395C9.58518 24.7776 10.3214 24.7748 10.6155 24.7697C11.7014 24.7507 12.4896 23.8025 12.4896 22.5151C12.4896 21.1618 11.7213 20.2524 10.5776 20.2524H9.54492C9.4282 20.2524 9.31635 20.2988 9.23391 20.3815C9.15147 20.4641 9.10524 20.5761 9.10547 20.6927V20.6956V20.6956V24.2791C9.10547 24.3092 9.10852 24.3387 9.11432 24.3672C9.12135 24.4738 9.16647 24.5746 9.2427 24.6502ZM10.5776 21.1313C11.3394 21.1313 11.6107 21.8461 11.6107 22.5151C11.6107 23.4533 11.1032 23.8821 10.6001 23.8909C10.4603 23.8933 10.2109 23.8953 9.99024 23.8966C9.98883 23.4655 9.9859 21.5798 9.98514 21.1313H10.5776Z" fill="white"/>
<path d="M5.59277 24.8333C5.83547 24.8333 6.03223 24.6366 6.03223 24.3938V23.1988C6.25043 23.1976 6.49852 23.1965 6.63902 23.1965C7.4775 23.1965 8.15965 22.5237 8.15965 21.6967C8.15965 20.8696 7.4775 20.1968 6.63902 20.1968H5.59277C5.476 20.1968 5.36402 20.2433 5.28152 20.326C5.19938 20.4084 5.15338 20.52 5.15338 20.6362H5.15332V24.3938C5.15332 24.6366 5.35008 24.8333 5.59277 24.8333ZM6.63902 21.0757C6.98689 21.0757 7.28074 21.3602 7.28074 21.6967C7.28074 22.0333 6.98689 22.3176 6.63902 22.3176C6.49945 22.3176 6.25447 22.3188 6.03709 22.3199C6.03592 22.0954 6.03416 21.3106 6.03352 21.0758H6.63902V21.0757Z" fill="white"/>
<path d="M13.8253 12.7419C12.7453 13.0828 11.6367 13.5546 11.0454 14.165C10.5575 14.6686 10.4691 15.2529 10.8028 15.7681C11.0292 16.1178 11.3406 16.3005 11.6906 16.3005C11.8249 16.3005 11.965 16.2736 12.1082 16.2188C12.6246 16.0214 13.1823 15.4596 13.8132 14.5015C14.0168 14.1921 14.223 13.8484 14.4283 13.4765C14.503 13.4545 14.5791 13.4326 14.6571 13.4109C15.8973 13.0639 17.3004 12.812 18.5318 12.7068C19.2824 13.4326 20.0583 13.9982 20.7198 14.1525C21.4474 14.3222 22.0244 13.9895 22.2627 13.2623C22.407 12.8219 22.2408 12.4066 21.8181 12.1514C21.3834 11.8889 20.6281 11.7622 19.5736 11.7743C19.349 11.7768 19.1119 11.786 18.8652 11.8013C18.3915 11.3127 17.8986 10.7288 17.4239 10.084C17.0562 9.5845 16.7275 9.08464 16.4495 8.6095C16.4798 8.50538 16.5085 8.40267 16.5357 8.30177C16.8361 7.18773 16.9433 6.33478 16.8542 5.76653C16.7254 4.94593 16.1958 4.82939 15.9741 4.81743C15.2191 4.77659 14.7106 5.15751 14.6138 5.83632C14.537 6.37556 14.7183 7.11747 15.1528 8.04138C15.2561 8.26099 15.3719 8.48734 15.4991 8.71849C15.4517 8.8706 15.4003 9.02886 15.3447 9.19357C14.9396 10.392 14.3909 11.6691 13.8253 12.7419ZM11.715 15.4193C11.6836 15.4232 11.6308 15.4298 11.5404 15.2903C11.4669 15.1767 11.4629 15.0911 11.5257 14.9741C11.6724 14.7006 12.1733 14.3168 13.1426 13.9204C12.4661 14.9697 11.9605 15.3886 11.715 15.4193ZM21.4347 12.9587C21.4341 12.9642 21.4323 12.9739 21.4275 12.9887C21.3177 13.3236 21.1702 13.3552 20.9194 13.2967C20.6132 13.2252 20.2242 12.999 19.7904 12.6528C20.9651 12.6621 21.3749 12.8738 21.4347 12.9587ZM15.4839 5.96042C15.5018 5.8348 15.5219 5.69353 15.8563 5.69353C15.8773 5.69353 15.8996 5.69411 15.9232 5.69523C16.0232 5.81716 16.0748 6.35968 15.8432 7.43335C15.5704 6.80786 15.4372 6.28825 15.4839 5.96042ZM16.0958 9.71066C16.2887 10.0071 16.4962 10.3064 16.7161 10.6051C17.0316 11.0337 17.388 11.4786 17.7649 11.9033C17.3288 11.9559 16.8791 12.0238 16.4291 12.1055C16.1247 12.1608 15.5939 12.265 14.9725 12.42C15.1104 12.1342 15.2462 11.838 15.3792 11.5334C15.6434 10.9282 15.8865 10.309 16.0958 9.71066Z" fill="white"/>
</svg>
