<svg width="24" height="25" viewBox="0 0 24 25" fill="none" xmlns="http://www.w3.org/2000/svg">
<path d="M12 0.283691C5.3832 0.283691 0 5.6668 0 12.2834C0 18.9004 5.3832 24.2837 12 24.2837C12.6025 24.2837 13.0909 23.7953 13.0909 23.1928C13.0909 22.5903 12.6025 22.1019 12 22.1019C6.58618 22.1019 2.18182 17.6973 2.18182 12.2834C2.18175 6.86985 6.58618 2.4655 12 2.4655C17.4138 2.4655 21.8182 6.86985 21.8182 12.2834V15.0112C21.8182 15.9135 21.0839 16.6476 20.1815 16.6476C19.2793 16.6476 18.5452 15.9135 18.5452 15.0112V12.2834C18.5452 8.67428 15.6091 5.738 12 5.738C8.39084 5.738 5.45462 8.67428 5.45462 12.2834C5.45462 15.8929 8.39084 18.8294 12 18.8294C13.8856 18.8294 15.5871 18.0275 16.7827 16.7472C17.4159 17.982 18.7012 18.8294 20.1815 18.8294C22.2871 18.8294 24 17.1166 24 15.0112V12.2834C23.9999 5.6668 18.6168 0.283691 12 0.283691ZM12 16.6476C9.59389 16.6476 7.63644 14.6898 7.63644 12.2834C7.63644 9.87733 9.59389 7.91981 12 7.91981C14.406 7.91981 16.3634 9.87733 16.3634 12.2834C16.3634 14.6898 14.406 16.6476 12 16.6476Z" fill="#BE4073"/>
</svg>
