<svg width="68" height="39" viewBox="0 0 68 39" fill="none" xmlns="http://www.w3.org/2000/svg">
<mask id="mask0_205_2402" style="mask-type:alpha" maskUnits="userSpaceOnUse" x="0" y="0" width="30" height="39">
<path d="M17.0199 2.77876C16.0526 2.58952 15.0496 2.78875 14.2281 3.33335C13.4065 3.87794 12.8325 4.7241 12.63 5.68876L12.2599 7.47876L6.81999 33.8488C6.62205 34.8141 6.81515 35.8184 7.35697 36.6415C7.8988 37.4645 8.74508 38.039 9.71 38.2388C9.9575 38.2851 10.2083 38.3119 10.46 38.3188C11.3207 38.3151 12.1537 38.0146 12.8186 37.4681C13.4836 36.9216 13.9397 36.1625 14.11 35.3188L19.86 7.14876C20.0535 6.19352 19.8643 5.20051 19.3332 4.38329C18.8021 3.56607 17.9714 2.98993 17.0199 2.77876ZM9.25004 25.6988C10.397 26.5581 11.3708 27.627 12.12 28.8488C10.6382 29.327 9.27485 30.1143 8.12003 31.1588L9.25004 25.6988ZM13.41 35.1988C13.2723 35.873 12.9072 36.4795 12.3755 36.9164C11.8439 37.3534 11.1782 37.5943 10.49 37.5988C10.2885 37.5914 10.0878 37.568 9.88993 37.5288C9.11222 37.3697 8.42936 36.9088 7.99076 36.2472C7.55216 35.5855 7.39362 34.777 7.54997 33.9988L7.85001 32.5788C9.03589 31.0801 10.6679 29.9979 12.5099 29.4888C13.0812 30.4897 13.5599 31.5407 13.94 32.6288L13.41 35.1988ZM14.22 31.2888C13.2923 28.7282 11.6208 26.503 9.41996 24.8988L12.69 8.89876C14.167 14.5156 15.032 20.2758 15.2699 26.0788L14.22 31.2888ZM19.22 6.98876L15.82 23.3788C15.04 13.5288 13.37 8.49876 12.97 7.37876L13.3 5.77876C13.4403 5.10298 13.8093 4.49627 14.3449 4.0609C14.8804 3.62553 15.5498 3.38814 16.24 3.38876C16.4415 3.38889 16.6425 3.40899 16.84 3.44876C17.2281 3.52628 17.5969 3.67981 17.9253 3.90051C18.2538 4.1212 18.5354 4.4047 18.7538 4.73467C18.9723 5.06464 19.1233 5.43456 19.1982 5.82314C19.273 6.21171 19.2702 6.61126 19.19 6.99876L19.22 6.98876Z" fill="#AAAAAA"/>
<path d="M26.9102 0.998817C26.6902 0.950403 26.4655 0.926922 26.2402 0.928817C25.4699 0.928877 24.7231 1.19444 24.1256 1.68078C23.5282 2.16711 23.1166 2.84449 22.9602 3.59882L18.5902 24.9788C18.4158 25.8458 18.5913 26.7465 19.0784 27.4846C19.5654 28.2226 20.3245 28.7382 21.1902 28.9188C21.4102 28.9668 21.635 28.9903 21.8602 28.9888C22.6306 28.9888 23.3774 28.7232 23.9749 28.2369C24.5723 27.7505 24.9838 27.0732 25.1401 26.3188L29.5101 4.93882C29.6873 4.07162 29.513 3.16956 29.0255 2.43081C28.538 1.69205 27.7771 1.17701 26.9102 0.998817ZM26.1501 18.3088C23.6912 19.2865 21.481 20.7998 19.6802 22.7388L22.3602 9.63882C22.8487 12.4367 24.2988 14.9762 26.4602 16.8188L26.1501 18.3088ZM24.5402 26.1988C24.4143 26.8131 24.0816 27.3657 23.5975 27.7642C23.1134 28.1628 22.5073 28.3833 21.8802 28.3888C21.6953 28.3891 21.5108 28.369 21.3302 28.3288C20.6207 28.1843 19.9977 27.7638 19.5983 27.16C19.1988 26.5561 19.0557 25.8183 19.2002 25.1088L19.4302 23.9988C21.1964 21.8467 23.4527 20.1493 26.0101 19.0488L24.5402 26.1988ZM28.9102 4.82882L26.6102 16.1388C24.2742 13.9339 22.8985 10.8989 22.7801 7.68882L23.5902 3.74882C23.7129 3.13378 24.045 2.58033 24.53 2.1828C25.0151 1.78527 25.6231 1.56828 26.2502 1.56882C26.4352 1.56897 26.6195 1.58908 26.8002 1.62881C27.1469 1.69701 27.4768 1.83286 27.771 2.0286C28.0652 2.22434 28.318 2.47613 28.5149 2.76958C28.7118 3.06304 28.8489 3.39241 28.9185 3.73888C28.988 4.08534 28.9885 4.44212 28.9202 4.78882L28.9102 4.82882Z" fill="#AAAAAA"/>
<path d="M3.00004 22.3887C2.4067 22.3887 1.82664 22.5646 1.3333 22.8943C0.839949 23.2239 0.455379 23.6924 0.228316 24.2406C0.00125319 24.7888 -0.0580939 25.392 0.0576618 25.9739C0.173417 26.5559 0.459149 27.0904 0.878707 27.51C1.29826 27.9296 1.83277 28.2153 2.41472 28.331C2.99666 28.4468 3.59982 28.3874 4.14799 28.1603C4.69617 27.9332 5.16479 27.5487 5.49443 27.0554C5.82407 26.562 6.00004 25.982 6.00004 25.3887C6.00004 24.593 5.68387 23.83 5.12126 23.2673C4.55865 22.7047 3.79569 22.3887 3.00004 22.3887ZM3.00004 27.7787C2.52495 27.7807 2.05985 27.6416 1.66386 27.3791C1.26787 27.1166 0.958742 26.7424 0.775557 26.3041C0.592373 25.8657 0.54346 25.3828 0.634932 24.9166C0.726404 24.4504 0.954107 24.0218 1.28935 23.6852C1.6246 23.3485 2.05229 23.119 2.51811 23.0255C2.98394 22.9321 3.46692 22.9791 3.90605 23.1604C4.34518 23.3418 4.72063 23.6494 4.98479 24.0443C5.24895 24.4392 5.38993 24.9036 5.38994 25.3787C5.38994 26.0135 5.13852 26.6224 4.6906 27.0722C4.24267 27.522 3.63483 27.776 3.00004 27.7787Z" fill="#AAAAAA"/>
</mask>
<g mask="url(#mask0_205_2402)">
<rect x="-1.00977" y="-0.121094" width="31" height="39" fill="url(#paint0_linear_205_2402)"/>
</g>
<path d="M60.0204 32.9984H58.1904L61.8705 22.8184H63.6704L67.3204 32.9984H65.5104L62.7904 25.2283H62.7104L60.0204 32.9984Z" fill="#502E79"/>
<path d="M51.6598 29.0987C51.6598 30.6987 51.6598 31.4187 53.0298 31.4187H56.4498V32.8487C55.5398 32.9287 54.5199 32.9887 53.7499 32.9887C52.5399 32.9887 50.5498 33.3787 49.9298 31.8987C49.7166 31.0053 49.6324 30.086 49.6798 29.1687V26.6787C49.6798 25.0987 49.6299 23.7587 50.9599 23.0987C51.8659 22.8411 52.8124 22.7563 53.7499 22.8487C54.6335 22.8752 55.5149 22.952 56.3898 23.0787V24.4487H52.9699C51.5599 24.4487 51.6099 25.1687 51.6099 26.7687L51.6598 29.0987Z" fill="#502E79"/>
<path d="M38.6007 10.4482V16.9982C38.6007 18.9982 38.7607 20.7782 36.4307 20.6182C35.8268 20.6008 35.2322 20.4649 34.6807 20.2182V18.9982H35.9106C36.4906 18.9982 36.7606 18.2782 36.7606 17.0982V10.4082L38.6007 10.4482Z" fill="#502E79"/>
<path d="M46.3705 10.4494H48.2505V16.7595C48.2505 18.4995 48.0304 19.9894 46.4604 20.4194C45.8087 20.5932 45.1344 20.6674 44.4604 20.6395C41.7304 20.6395 40.6904 19.9995 40.6904 16.7495V10.4395H42.4104V16.6994C42.4104 18.3294 42.8004 19.0294 44.2004 19.0294H44.5604C45.9604 19.0294 46.3505 18.3294 46.3505 16.6994V10.4494H46.3705Z" fill="#502E79"/>
<path d="M52.5706 13.2589C52.5706 13.5989 52.4606 14.1989 52.7406 14.3789C53.0409 14.5697 53.3853 14.6799 53.7406 14.6989C54.6406 14.8589 55.6905 14.5589 56.5505 14.8989C56.9959 15.1417 57.3579 15.5127 57.5897 15.9639C57.8215 16.415 57.9125 16.9255 57.8506 17.4289V17.7489C57.8506 20.4189 56.2406 20.9389 53.8506 20.7989C52.9015 20.7308 51.9644 20.546 51.0605 20.2489V18.8489L54.5605 19.0389C55.7805 19.0389 56.0105 18.6489 56.0105 17.7189C56.0414 17.422 55.9536 17.125 55.7662 16.8927C55.5789 16.6604 55.3071 16.5116 55.0105 16.4789C54.9308 16.4693 54.8502 16.4693 54.7705 16.4789C54.0725 16.5539 53.3685 16.5539 52.6705 16.4789C51.3005 16.0889 50.8506 15.0089 50.8506 13.6489V13.3089C50.8506 10.2389 52.9405 10.3989 54.7905 10.3989C55.7428 10.3969 56.6911 10.5213 57.6106 10.7689V12.1989L54.1705 12.0189C52.9705 12.0189 52.6206 12.4189 52.6206 13.2789L52.5706 13.2589Z" fill="#502E79"/>
<path d="M59.0303 11.999V10.459H66.6403V11.999H63.6403V20.579H61.8203V11.999H59.0303Z" fill="#502E79"/>
<path d="M37.7302 33.0495H35.9502V22.9395H37.7302V33.0495Z" fill="#502E79"/>
<path d="M40.1201 33.1189V22.8389C41.4601 22.8389 41.2701 22.8989 42.8101 22.8989C45.2101 22.8989 46.5901 23.0589 47.3301 24.5689C47.6879 25.2517 47.8829 26.0081 47.9 26.7789V29.2989C47.9 30.9289 47.48 32.0689 45.9 32.7489C44.9346 33.0748 43.9183 33.2238 42.9 33.1889C41.24 33.1789 41.4701 33.1189 40.1201 33.1189ZM41.9 24.5189V31.5189H43.8201C45.5101 31.5189 46.0901 30.7089 46.0901 29.0689V26.7189C46.0901 25.0589 45.5401 24.4689 43.8201 24.4689L41.9 24.5189Z" fill="#502E79"/>
<path d="M54.1298 28.8884C54.6103 28.8884 54.9998 28.4989 54.9998 28.0184C54.9998 27.5379 54.6103 27.1484 54.1298 27.1484C53.6493 27.1484 53.2598 27.5379 53.2598 28.0184C53.2598 28.4989 53.6493 28.8884 54.1298 28.8884Z" fill="#502E79"/>
<defs>
<linearGradient id="paint0_linear_205_2402" x1="14.4902" y1="-0.121094" x2="14.4902" y2="38.8789" gradientUnits="userSpaceOnUse">
<stop stop-color="#F39641"/>
<stop offset="0.25" stop-color="#EB745B"/>
<stop offset="0.510417" stop-color="#C143A2"/>
<stop offset="0.765625" stop-color="#7284D4"/>
<stop offset="1" stop-color="#44BCE3"/>
</linearGradient>
</defs>
</svg>
