<svg width="29" height="30" viewBox="0 0 29 30" fill="none" xmlns="http://www.w3.org/2000/svg">
<path d="M25.0455 0.857422H3.95455C2.90574 0.857422 1.89988 1.27406 1.15826 2.01568C0.416638 2.7573 0 3.76316 0 4.81197L0 25.9029C0 26.9517 0.416638 27.9575 1.15826 28.6992C1.89988 29.4408 2.90574 29.8574 3.95455 29.8574H25.0455C26.0943 29.8574 27.1001 29.4408 27.8417 28.6992C28.5834 27.9575 29 26.9517 29 25.9029V4.81197C29 3.76316 28.5834 2.7573 27.8417 2.01568C27.1001 1.27406 26.0943 0.857422 25.0455 0.857422V0.857422ZM9.88636 23.807C9.88658 23.8874 9.87093 23.9671 9.8403 24.0414C9.80968 24.1158 9.76469 24.1834 9.7079 24.2403C9.65111 24.2972 9.58365 24.3424 9.50938 24.3732C9.4351 24.4041 9.35547 24.4199 9.27506 24.4199H6.67C6.58944 24.4201 6.50964 24.4044 6.43518 24.3737C6.36071 24.343 6.29305 24.2978 6.23609 24.2409C6.17913 24.1839 6.13399 24.1163 6.10326 24.0418C6.07253 23.9673 6.05683 23.8875 6.05705 23.807V12.8858C6.05705 12.7233 6.12162 12.5674 6.23658 12.4524C6.35153 12.3375 6.50743 12.2729 6.67 12.2729H9.27506C9.43734 12.2733 9.59282 12.3381 9.70742 12.453C9.82201 12.5679 9.88636 12.7236 9.88636 12.8858V23.807ZM7.9717 11.2381C7.48287 11.2381 7.00501 11.0931 6.59856 10.8216C6.19211 10.55 5.87532 10.164 5.68825 9.71235C5.50118 9.26073 5.45224 8.76377 5.5476 8.28433C5.64297 7.80489 5.87837 7.36449 6.22403 7.01883C6.56968 6.67318 7.01008 6.43778 7.48952 6.34241C7.96896 6.24705 8.46592 6.29599 8.91754 6.48306C9.36917 6.67013 9.75518 6.98692 10.0268 7.39337C10.2983 7.79982 10.4433 8.27768 10.4433 8.76651C10.4433 9.42202 10.1829 10.0507 9.71938 10.5142C9.25587 10.9777 8.62721 11.2381 7.9717 11.2381ZM23.5032 23.8498C23.5034 23.9239 23.489 23.9972 23.4607 24.0657C23.4325 24.1342 23.391 24.1964 23.3386 24.2488C23.2862 24.3011 23.224 24.3426 23.1556 24.3709C23.0871 24.3991 23.0137 24.4136 22.9397 24.4133H20.1385C20.0645 24.4136 19.9911 24.3991 19.9226 24.3709C19.8541 24.3426 19.7919 24.3011 19.7396 24.2488C19.6872 24.1964 19.6457 24.1342 19.6175 24.0657C19.5892 23.9972 19.5748 23.9239 19.575 23.8498V18.7336C19.575 17.9691 19.7991 15.3854 17.5763 15.3854C15.8544 15.3854 15.5035 17.1534 15.4343 17.9477V23.8564C15.4343 24.0044 15.376 24.1465 15.2721 24.252C15.1682 24.3574 15.027 24.4178 14.879 24.4199H12.1734C12.0995 24.4199 12.0263 24.4053 11.958 24.377C11.8897 24.3487 11.8277 24.3071 11.7755 24.2548C11.7233 24.2024 11.682 24.1403 11.6538 24.0719C11.6257 24.0036 11.6113 23.9303 11.6115 23.8564V12.838C11.6113 12.7641 11.6257 12.6909 11.6538 12.6225C11.682 12.5542 11.7233 12.492 11.7755 12.4397C11.8277 12.3873 11.8897 12.3458 11.958 12.3175C12.0263 12.2891 12.0995 12.2745 12.1734 12.2745H14.879C15.0284 12.2745 15.1718 12.3339 15.2774 12.4396C15.3831 12.5453 15.4425 12.6886 15.4425 12.838V13.7904C16.0818 12.8298 17.0293 12.0916 19.051 12.0916C23.5295 12.0916 23.4999 16.2736 23.4999 18.5705L23.5032 23.8498Z" fill="white"/>
</svg>
