<svg width="23" height="24" viewBox="0 0 23 24" fill="none" xmlns="http://www.w3.org/2000/svg">
<path d="M22.2602 16.8391C22.2195 16.8054 17.6226 13.5348 16.3814 13.7349C15.7826 13.8407 15.4407 14.2493 14.7545 15.0666C14.6441 15.1984 14.3781 15.5135 14.1726 15.7382C13.7389 15.5969 13.3159 15.4247 12.9068 15.223C10.7951 14.1949 9.08883 12.4886 8.06073 10.3769C7.859 9.96778 7.68682 9.54477 7.54553 9.11109C7.77093 8.90486 8.0868 8.63882 8.22173 8.52536C9.03517 7.84302 9.44303 7.50032 9.54883 6.90079C9.7658 5.65956 6.47833 1.06416 6.4446 1.02276C6.29489 0.810435 6.0999 0.634 5.87372 0.506191C5.64753 0.378382 5.39579 0.302387 5.13667 0.283691C3.8042 0.283691 0 5.21796 0 6.04979C0 6.09809 0.0697667 11.0078 6.12413 17.1665C12.2759 23.2139 17.1856 23.2837 17.2339 23.2837C18.065 23.2837 23 19.4795 23 18.147C22.9811 17.8879 22.905 17.6361 22.777 17.4099C22.6491 17.1838 22.4726 16.9888 22.2602 16.8391ZM17.1488 21.7458C16.4833 21.689 12.3587 21.1455 7.20667 16.0847C2.12137 10.9074 1.5916 6.77583 1.5387 6.13566C2.54363 4.55835 3.75727 3.12421 5.14663 1.87222C5.1773 1.90289 5.21793 1.94889 5.27007 2.00869C6.3356 3.46323 7.25349 5.02036 8.01013 6.65699C7.76408 6.90453 7.50401 7.13772 7.2312 7.35542C6.80815 7.67777 6.41967 8.04313 6.072 8.44562C6.01317 8.52816 5.9713 8.62155 5.94879 8.72038C5.92629 8.81921 5.92361 8.92152 5.9409 9.02139C6.10315 9.72422 6.35164 10.4043 6.68073 11.0462C7.85978 13.4673 9.81622 15.4235 12.2375 16.6022C12.8793 16.9318 13.5594 17.1805 14.2623 17.3428C14.3622 17.3605 14.4646 17.358 14.5634 17.3355C14.6623 17.313 14.7557 17.2709 14.8381 17.2117C15.242 16.8626 15.6086 16.4726 15.9321 16.0479C16.1728 15.7612 16.4941 15.3786 16.616 15.2705C18.2568 16.0264 19.8174 16.9454 21.2742 18.0136C21.3379 18.0673 21.3831 18.1087 21.413 18.1355C20.1609 19.5253 18.7265 20.7393 17.1488 21.7442V21.7458Z" fill="#BE4073"/>
</svg>
