<svg width="40" height="54" viewBox="0 0 40 54" fill="none" xmlns="http://www.w3.org/2000/svg">
<path d="M19.3825 10.3322C16.9346 12.0538 14.1602 14.0053 12.6737 17.2338C10.0917 22.866 17.9571 29.01 18.2932 29.2688C18.3714 29.329 18.4648 29.3589 18.5581 29.3589C18.6571 29.3589 18.7563 29.325 18.8369 29.2576C18.9931 29.127 19.0373 28.9052 18.9435 28.7246C18.9151 28.6697 16.0918 23.1858 16.1967 19.2514C16.2339 17.8813 18.1515 16.3269 20.1816 14.6812C22.0411 13.1738 24.1487 11.4654 25.3819 9.46683C28.0891 5.06765 25.0802 0.741951 25.0495 0.698874C24.9299 0.531085 24.7094 0.470118 24.5207 0.55297C24.3323 0.635997 24.2279 0.839915 24.271 1.04123C24.277 1.06971 24.8622 3.9303 23.234 6.87738C22.563 8.09516 21.0892 9.13194 19.3825 10.3322Z" fill="#BE4073"/>
<path d="M29.6956 12.2722C29.8683 12.1421 29.919 11.9048 29.8144 11.7155C29.7099 11.5262 29.4821 11.4426 29.28 11.5194C28.8641 11.6775 19.0967 15.4423 19.0967 19.9915C19.0967 23.1273 20.4363 24.784 21.4144 25.9938C21.798 26.4681 22.1293 26.8779 22.2384 27.2277C22.5456 28.2358 21.8177 30.0579 21.5116 30.6748C21.4234 30.8524 21.4666 31.0672 21.6167 31.1968C21.6978 31.2668 21.7991 31.3022 21.9005 31.3022C21.9869 31.3022 22.0735 31.2765 22.1484 31.2244C22.3164 31.1075 26.2528 28.3244 25.5467 24.9712C25.2838 23.6968 24.6574 22.7655 24.1047 21.9437C23.2486 20.6707 22.6302 19.751 23.5683 18.0524C24.6678 16.0716 29.6454 12.3099 29.6956 12.2722Z" fill="#BE4073"/>
<path d="M4.27102 31.3747C4.10358 31.8758 4.18261 32.3734 4.49943 32.8134C5.55828 34.2832 9.3087 35.0928 15.0604 35.0928C15.0608 35.0928 15.061 35.0928 15.0611 35.0928C15.8405 35.0928 16.6633 35.0775 17.5061 35.0473C26.702 34.7179 30.1128 31.8532 30.2535 31.7314C30.4069 31.5987 30.4479 31.3776 30.3526 31.1987C30.2572 31.02 30.0515 30.9302 29.8551 30.9842C26.6165 31.8685 20.5688 32.1823 16.3741 32.1823C11.6803 32.1823 9.28994 31.8443 8.70476 31.5947C9.00508 31.1824 10.8572 30.4461 13.1522 29.9947C13.3716 29.9516 13.5224 29.749 13.5007 29.5265C13.4789 29.304 13.292 29.1343 13.0685 29.1343C11.7231 29.1345 4.97622 29.2425 4.27102 31.3747Z" fill="#BE4073"/>
<path d="M35.0425 28.4243C33.1457 28.4243 31.3471 29.3747 31.2714 29.4152C31.0959 29.5092 31.007 29.7103 31.0551 29.9034C31.1034 30.0964 31.2769 30.2321 31.476 30.2322C31.5163 30.2324 35.5219 30.2651 35.8847 32.5537C36.2061 34.5281 32.0947 37.7272 30.4833 38.7933C30.3093 38.9085 30.2417 39.1312 30.3225 39.3234C30.3911 39.4872 30.5507 39.5897 30.7227 39.5897C30.7527 39.5897 30.7831 39.5866 30.8133 39.58C31.1958 39.4984 40.1677 37.5214 39.2191 32.2975C38.6404 29.0961 36.6283 28.4243 35.0425 28.4243Z" fill="#BE4073"/>
<path d="M28.8897 38.1541C28.9209 37.9867 28.8513 37.8164 28.712 37.7188L26.5608 36.212C26.4559 36.1385 26.3233 36.1154 26.2002 36.1481C26.1778 36.154 23.9281 36.7453 20.6619 37.1079C19.3656 37.2533 17.9137 37.3301 16.4628 37.3301C13.1975 37.3301 11.0625 36.9464 10.7516 36.665C10.7104 36.586 10.7234 36.55 10.7307 36.53C10.7872 36.3729 11.0899 36.1861 11.2852 36.1123C11.5007 36.0326 11.6169 35.7984 11.5499 35.5785C11.483 35.3586 11.2563 35.2291 11.0326 35.2829C8.87462 35.8037 7.81942 36.532 7.89619 37.4473C8.03255 39.0702 11.7918 39.9032 14.9699 40.1236C15.4269 40.1549 15.9213 40.1709 16.4387 40.1709C16.439 40.1709 16.4392 40.1709 16.4396 40.1709C21.7242 40.1709 28.499 38.5128 28.5668 38.4959C28.7321 38.4551 28.8582 38.3215 28.8897 38.1541Z" fill="#BE4073"/>
<path d="M12.6711 41.6375C12.834 41.5314 12.9063 41.3301 12.8484 41.1446C12.7908 40.9591 12.6172 40.8373 12.4223 40.8398C12.1331 40.8474 9.5925 40.962 9.41464 42.5797C9.36079 43.0631 9.49923 43.5046 9.8263 43.8921C10.7385 44.9732 13.2008 45.6157 17.3528 45.8566C17.8441 45.8859 18.3429 45.9007 18.836 45.9007C24.1146 45.9007 27.6696 44.248 27.8185 44.1777C27.9628 44.1094 28.058 43.9677 28.0665 43.8082C28.075 43.6489 27.9955 43.4976 27.8593 43.4144L25.1406 41.7548C25.0463 41.6973 24.9334 41.6782 24.8257 41.7002C24.8085 41.7039 23.0824 42.0619 20.4773 42.4157C19.9843 42.4826 19.367 42.5166 18.6427 42.5166C16.0404 42.5166 13.146 42.0914 12.5908 41.8131C12.5828 41.7609 12.5931 41.6949 12.6711 41.6375Z" fill="#BE4073"/>
<path d="M16.376 50.8909C28.4669 50.8806 34.9563 48.7304 36.2064 47.3774C36.649 46.8985 36.6968 46.4453 36.6591 46.1493C36.5661 45.4209 35.9028 44.975 35.8274 44.9265C35.6459 44.8098 35.4024 44.8404 35.2608 45.0036C35.1196 45.1671 35.1163 45.4056 35.258 45.5687C35.3343 45.6668 35.3784 45.831 35.1554 46.0542C34.6557 46.5209 29.615 47.9377 21.2224 48.3633C20.0728 48.4232 18.867 48.4534 17.6386 48.4536C10.1242 48.4536 4.62484 47.4244 3.90296 46.8245C4.18139 46.4248 6.12643 45.786 8.19514 45.4249C8.42824 45.3842 8.58578 45.1645 8.54965 44.9307C8.51352 44.6969 8.29797 44.5359 8.06244 44.5666C8.00407 44.5744 7.80624 44.5866 7.57678 44.6005C4.1635 44.8089 0.219062 45.2736 0.0132332 47.0321C-0.0492971 47.5681 0.109981 48.0544 0.486725 48.4779C1.40853 49.5136 4.05824 50.8907 16.3755 50.8907C16.3758 50.8909 16.3758 50.8909 16.376 50.8909Z" fill="#BE4073"/>
<path d="M38.5813 47.7585C38.4104 47.6795 38.2086 47.7194 38.0809 47.857C38.063 47.8761 36.2453 49.777 30.7796 50.8932C28.6871 51.3125 24.7594 51.5251 19.1054 51.5251C13.4409 51.5251 8.05096 51.3022 7.99711 51.3C7.772 51.289 7.57937 51.4527 7.5488 51.6743C7.51806 51.8959 7.66084 52.1045 7.8783 52.1563C7.93441 52.1697 13.5831 53.4931 21.3067 53.4931C25.0111 53.4931 28.6158 53.192 32.0209 52.5984C38.3699 51.4853 38.8144 48.3371 38.8302 48.2037C38.8523 48.0171 38.7519 47.8375 38.5813 47.7585Z" fill="#BE4073"/>
</svg>
