<svg width="40" height="53" viewBox="0 0 40 53" fill="none" xmlns="http://www.w3.org/2000/svg">
<path d="M19.7423 9.93049C17.3454 11.6163 14.6287 13.5271 13.1732 16.6884C10.645 22.2033 18.3466 28.2193 18.6757 28.4727C18.7523 28.5317 18.8438 28.561 18.9351 28.561C19.032 28.561 19.1291 28.5278 19.2081 28.4618C19.361 28.3339 19.4043 28.1167 19.3125 27.9399C19.2846 27.8861 16.5202 22.5164 16.6229 18.664C16.6593 17.3224 18.5369 15.8004 20.5248 14.1889C22.3455 12.713 24.4092 11.0401 25.6168 9.08316C28.2676 4.7756 25.3213 0.539984 25.2912 0.497805C25.1742 0.33351 24.9582 0.273813 24.7735 0.35494C24.589 0.436237 24.4868 0.635908 24.5289 0.833028C24.5349 0.860921 25.1079 3.66193 23.5136 6.54764C22.8566 7.74006 21.4135 8.75525 19.7423 9.93049Z" fill="white"/>
<path d="M29.8406 11.8302C30.0096 11.7028 30.0593 11.4705 29.9569 11.2851C29.8545 11.0997 29.6315 11.0179 29.4336 11.0931C29.0264 11.2479 19.4624 14.9343 19.4624 19.3888C19.4624 22.4592 20.774 24.0814 21.7318 25.266C22.1075 25.7305 22.4318 26.1317 22.5386 26.4742C22.8395 27.4614 22.1267 29.2455 21.827 29.8496C21.7406 30.0234 21.7829 30.2338 21.9299 30.3607C22.0093 30.4292 22.1085 30.4639 22.2078 30.4639C22.2923 30.4639 22.3772 30.4388 22.4505 30.3877C22.615 30.2733 26.4694 27.5481 25.7781 24.2648C25.5206 23.0169 24.9073 22.1049 24.3661 21.3003C23.5278 20.0538 22.9223 19.1532 23.8409 17.4901C24.9175 15.5505 29.7914 11.8671 29.8406 11.8302Z" fill="white"/>
<path d="M4.94569 30.5348C4.78174 31.0255 4.85912 31.5128 5.16934 31.9436C6.20614 33.3828 9.87846 34.1755 15.5104 34.1755C15.5108 34.1755 15.5109 34.1755 15.5111 34.1755C16.2742 34.1755 17.0799 34.1606 17.9051 34.131C26.9095 33.8085 30.2494 31.0034 30.3871 30.8842C30.5373 30.7543 30.5774 30.5377 30.4841 30.3626C30.3907 30.1876 30.1893 30.0996 29.997 30.1525C26.8259 31.0184 20.9041 31.3257 16.7967 31.3257C12.2007 31.3257 9.86009 30.9947 9.2871 30.7503C9.58116 30.3466 11.3947 29.6256 13.6419 29.1836C13.8567 29.1414 14.0044 28.9431 13.9831 28.7252C13.9619 28.5074 13.7789 28.3412 13.56 28.3412C12.2425 28.3414 5.63621 28.4471 4.94569 30.5348Z" fill="white"/>
<path d="M35.0763 27.6459C33.219 27.6459 31.4579 28.5765 31.3837 28.6162C31.2119 28.7082 31.1248 28.9051 31.172 29.0943C31.2192 29.2832 31.3891 29.416 31.5841 29.4162C31.6235 29.4164 35.5457 29.4484 35.901 31.6893C36.2156 33.6226 32.1899 36.7551 30.6121 37.799C30.4416 37.9118 30.3755 38.1298 30.4546 38.3181C30.5217 38.4785 30.678 38.5788 30.8464 38.5788C30.8758 38.5788 30.9056 38.5758 30.9352 38.5693C31.3097 38.4894 40.0947 36.5535 39.1659 31.4384C38.5992 28.3037 36.6291 27.6459 35.0763 27.6459Z" fill="white"/>
<path d="M29.0518 37.1732C29.0824 37.0092 29.0142 36.8425 28.8778 36.7469L26.7714 35.2715C26.6687 35.1996 26.5389 35.177 26.4183 35.2089C26.3964 35.2147 24.1935 35.7937 20.9954 36.1488C19.7261 36.2911 18.3044 36.3663 16.8838 36.3663C13.6865 36.3663 11.5959 35.9906 11.2914 35.7151C11.2511 35.6377 11.2639 35.6025 11.271 35.5829C11.3263 35.429 11.6227 35.2462 11.8139 35.1739C12.025 35.0958 12.1388 34.8666 12.0731 34.6512C12.0076 34.4359 11.7857 34.309 11.5666 34.3618C9.45357 34.8717 8.42035 35.5848 8.49552 36.4811C8.62904 38.0701 12.31 38.8858 15.4219 39.1017C15.8694 39.1323 16.3535 39.1479 16.8601 39.1479C16.8605 39.1479 16.8606 39.1479 16.861 39.1479C22.0356 39.1479 28.6693 37.5244 28.7356 37.5079C28.8976 37.4679 29.021 37.3371 29.0518 37.1732Z" fill="white"/>
<path d="M13.1704 40.5839C13.3299 40.48 13.4007 40.2829 13.3441 40.1013C13.2876 39.9196 13.1177 39.8004 12.9269 39.8028C12.6437 39.8103 10.1559 39.9225 9.98179 41.5064C9.92906 41.9798 10.0646 42.4121 10.3849 42.7915C11.2781 43.8501 13.6891 44.4792 17.7547 44.7151C18.2357 44.7439 18.7241 44.7583 19.207 44.7583C24.3756 44.7583 27.8566 43.14 28.0024 43.0712C28.1437 43.0043 28.2369 42.8655 28.2453 42.7094C28.2536 42.5534 28.1757 42.4053 28.0424 42.3238L25.3803 40.6987C25.2879 40.6424 25.1774 40.6237 25.0719 40.6453C25.0551 40.6489 23.3649 40.9994 20.814 41.3459C20.3314 41.4114 19.7269 41.4447 19.0177 41.4447C16.4696 41.4447 13.6354 41.0284 13.0918 40.7559C13.084 40.7047 13.094 40.6401 13.1704 40.5839Z" fill="white"/>
<path d="M16.7986 49.6446C28.6378 49.6345 34.992 47.5292 36.2161 46.2042C36.6494 45.7353 36.6962 45.2916 36.6593 45.0018C36.5683 44.2885 35.9188 43.8519 35.845 43.8044C35.6672 43.6902 35.4288 43.7201 35.2902 43.88C35.1519 44.04 35.1487 44.2735 35.2875 44.4332C35.3621 44.5293 35.4053 44.69 35.187 44.9086C34.6976 45.3656 29.762 46.7529 21.5442 47.1696C20.4184 47.2283 19.2377 47.2579 18.0349 47.258C10.677 47.258 5.2922 46.2503 4.58535 45.6629C4.85799 45.2715 6.76252 44.646 8.78815 44.2924C9.01639 44.2526 9.17065 44.0375 9.13528 43.8085C9.0999 43.5796 8.88883 43.4219 8.65821 43.452C8.60106 43.4597 8.40734 43.4716 8.18267 43.4852C4.84047 43.6893 0.978172 44.1443 0.776629 45.8661C0.715401 46.391 0.871362 46.8672 1.24026 47.2819C2.14286 48.296 4.7374 49.6444 16.7981 49.6444C16.7985 49.6446 16.7985 49.6446 16.7986 49.6446Z" fill="white"/>
<path d="M38.5412 46.5774C38.3739 46.5001 38.1762 46.5392 38.0512 46.6739C38.0337 46.6926 36.2538 48.5539 30.902 49.6468C28.8531 50.0574 25.0071 50.2656 19.4709 50.2656C13.9243 50.2656 8.64664 50.0474 8.59392 50.0452C8.3735 50.0344 8.18488 50.1947 8.15495 50.4117C8.12485 50.6287 8.26465 50.833 8.47759 50.8836C8.53252 50.8967 14.0636 52.1926 21.6263 52.1926C25.2536 52.1926 28.7832 51.8978 32.1174 51.3165C38.3342 50.2266 38.7695 47.144 38.7849 47.0134C38.8065 46.8307 38.7082 46.6548 38.5412 46.5774Z" fill="white"/>
</svg>
