<svg width="209" height="57" viewBox="0 0 209 57" fill="none" xmlns="http://www.w3.org/2000/svg">
<g clip-path="url(#clip0_34_96)">
<path d="M129.363 0.43335H119.033V26.7164H129.363C137.571 26.7164 143.266 21.5147 143.266 13.5946C143.266 5.67453 137.571 0.43335 129.363 0.43335ZM129.363 21.7907H124.611V5.35903H129.363C134.744 5.35903 137.571 8.94493 137.571 13.5946C137.571 18.2443 134.547 21.7907 129.363 21.7907Z" fill="#151542"/>
<path d="M143.668 26.7164H164.345V21.8691H149.245V15.7617H164.07V10.9546H149.245V5.24112H164.345V0.43335H143.668V26.7164Z" fill="#151542"/>
<path d="M199.181 10.6392C196.157 9.92978 193.957 9.37845 193.957 7.60526C193.957 6.02901 195.293 4.92571 197.806 4.92571C200.32 4.92571 203.188 5.83207 205.308 7.80221L208.411 3.70385C205.819 1.30029 202.362 0.0395508 198.199 0.0395508C192.033 0.0395508 188.262 3.58594 188.262 7.95964C188.262 13.8312 193.761 15.0129 198.042 15.9983C201.066 16.7077 203.344 17.3776 203.344 19.3477C203.344 20.8449 201.852 22.3033 198.789 22.3033C195.175 22.3033 192.308 20.6875 190.462 18.7569L187.399 23.0127C189.873 25.4953 193.486 27.1894 198.514 27.1894C205.584 27.1894 209.001 23.564 209.001 18.7569C209.001 12.9248 203.503 11.6246 199.182 10.6398L199.181 10.6392Z" fill="#151542"/>
<path d="M79.9594 30.1047H68.9229V56.3878H72.8503V46.2611H79.9594C85.301 46.2611 88.3251 42.5572 88.3251 38.1829C88.3251 33.8086 85.3398 30.1047 79.9594 30.1047ZM79.4486 42.7931H72.8503V33.5727H79.4486C82.2763 33.5727 84.2795 35.425 84.2795 38.1829C84.2795 40.9408 82.2763 42.7931 79.4486 42.7931Z" fill="#151542"/>
<path d="M124.461 29.6714C116.645 29.6714 111.264 35.4639 111.264 43.2661C111.264 51.0683 116.645 56.8608 124.461 56.8608C132.276 56.8608 137.657 51.0683 137.657 43.2661C137.657 35.4639 132.276 29.6714 124.461 29.6714ZM124.461 53.3533C118.844 53.3533 115.309 49.0184 115.309 43.2654C115.309 37.5124 118.844 33.1776 124.461 33.1776C130.077 33.1776 133.612 37.4729 133.612 43.2654C133.612 49.0579 129.999 53.3533 124.461 53.3533Z" fill="#151542"/>
<path d="M92.7893 20.0707C94.9932 24.4256 99.4592 27.1894 104.964 27.1894C112.897 27.1894 118.671 21.5154 118.671 13.5947C118.671 5.67396 112.897 0 104.964 0C97.0299 0 91.2956 5.6746 91.2956 13.5947C91.2956 13.8636 91.3189 14.1227 91.3318 14.3864C88.1347 15.5629 87.8919 17.8434 87.5122 18.4025C86.4125 20.5695 84.0561 22.2248 81.1496 22.2248C76.5938 22.2248 73.1371 18.5599 73.1371 13.5953C73.1371 8.63079 76.5932 4.96585 81.1496 4.96585C84.0561 4.96585 86.4125 6.66 87.5122 8.78822L92.3036 6.42418C90.4581 3.15249 87.1196 0 81.1496 0C73.491 0 67.4028 5.51653 67.4028 13.5947C67.4028 21.6729 73.491 27.1894 81.1496 27.1894C87.1196 27.1894 90.4187 23.9974 92.3043 20.727C92.2378 20.7587 92.438 20.4601 92.7893 20.0707ZM104.964 4.9652C109.794 4.9652 112.937 8.66901 112.937 13.5947C112.937 18.5204 109.794 22.2242 104.964 22.2242C100.133 22.2242 97.0299 18.4808 97.0299 13.5947C97.0299 8.70853 100.133 4.9652 104.964 4.9652Z" fill="#151542"/>
<path d="M187.142 8.90541C187.142 4.01925 183.803 0.43335 178.344 0.43335H166.09V9.15743H171.667V5.24112H177.52C179.758 5.24112 181.447 6.65928 181.447 8.86654C181.447 11.0738 179.758 12.492 177.52 12.492H173.581V12.4959H166.09V26.717H171.667V17.2991H175.752L180.897 26.717H187.299L181.408 16.7082C184.235 16.0383 187.142 13.5557 187.142 8.90606V8.90541Z" fill="#151542"/>
<path d="M109.673 38.1823C109.673 33.3356 106.256 30.1041 101.267 30.1041H90.231V38.8282H94.1584V33.5721H100.757C103.584 33.5721 105.627 35.4243 105.627 38.1823C105.627 40.9402 103.584 42.7925 100.757 42.7925H90.231V56.3871H94.1584V46.2605H99.0681L105.313 56.3871H109.87L103.153 45.8659C106.492 45.4325 109.673 42.9104 109.673 38.1823H109.673Z" fill="#151542"/>
<path d="M44.9985 0H11.816C5.29018 0 0 5.30746 0 11.8545V45.1455C0 51.6925 5.29018 57 11.816 57H44.9985C51.5243 57 56.8145 51.6925 56.8145 45.1455V11.8545C56.8145 5.30746 51.5243 0 44.9985 0Z" fill="url(#paint0_radial_34_96)"/>
<path d="M16.1594 21.3619L28.4726 16.4919V9.53064L9.31445 17.6639V24.9931L28.4726 33.0836V26.1955L16.1594 21.3619Z" fill="white"/>
<path d="M40.723 28.7656L28.4092 33.6349V40.5962L47.5673 32.4629V25.1337L28.4092 17.0432V23.9313L40.723 28.7656Z" fill="white"/>
<path d="M34.7744 41.835H28.4092V48.2209H34.7744V41.835Z" fill="white"/>
</g>
<defs>
<radialGradient id="paint0_radial_34_96" cx="0" cy="0" r="1" gradientUnits="userSpaceOnUse" gradientTransform="translate(5.83243 5.49839) scale(57.0663 57.2527)">
<stop stop-color="#BE4073"/>
<stop offset="1" stop-color="#823492"/>
</radialGradient>
<clipPath id="clip0_34_96">
<rect width="209" height="57" fill="white"/>
</clipPath>
</defs>
</svg>
