<svg width="16" height="14" viewBox="0 0 16 14" fill="none" xmlns="http://www.w3.org/2000/svg">
<path d="M0 7.1109C0 6.74939 0.26864 6.45062 0.617183 6.40334L0.714079 6.39682L13.2666 6.39739L8.73177 1.88105C8.45231 1.60279 8.45133 1.15066 8.7296 0.871192C8.98257 0.617132 9.37922 0.593231 9.65922 0.800049L9.73946 0.869017L15.4997 6.6045C15.5365 6.64118 15.5685 6.68088 15.5957 6.7228C15.6034 6.73542 15.6112 6.74833 15.6186 6.7615C15.6254 6.77278 15.6315 6.78451 15.6373 6.79636C15.6454 6.8136 15.6533 6.83141 15.6604 6.84959C15.6662 6.8636 15.6711 6.87723 15.6755 6.89097C15.6808 6.90801 15.6859 6.92616 15.6903 6.94459C15.6935 6.95746 15.6961 6.96985 15.6984 6.98228C15.7016 7.00078 15.7043 7.01993 15.7062 7.0393C15.7079 7.05408 15.7089 7.06872 15.7094 7.08337C15.7096 7.09225 15.7097 7.10156 15.7097 7.1109L15.7094 7.13856C15.7088 7.15258 15.7079 7.16658 15.7065 7.18055L15.7097 7.1109C15.7097 7.15596 15.7056 7.20005 15.6976 7.24279C15.6957 7.253 15.6935 7.26348 15.6911 7.27392C15.686 7.29542 15.6802 7.31612 15.6734 7.33641C15.6701 7.3465 15.6662 7.35727 15.6621 7.36796C15.6538 7.38945 15.6447 7.40993 15.6347 7.42988C15.6301 7.43926 15.6249 7.44909 15.6195 7.45881C15.6105 7.47467 15.6013 7.48974 15.5916 7.50443C15.5848 7.51483 15.5772 7.52565 15.5692 7.5363L15.5631 7.54453C15.5438 7.56967 15.5229 7.59348 15.5006 7.61583L15.4997 7.61649L9.7395 13.3529C9.46006 13.6312 9.00793 13.6303 8.72964 13.3508C8.47665 13.0968 8.45443 12.7 8.66243 12.4209L8.73173 12.341L13.2647 7.82555L0.714079 7.82498C0.319704 7.82498 0 7.50527 0 7.1109Z" fill="#151542"/>
</svg>
