<svg width="135" height="37" viewBox="0 0 135 37" fill="none" xmlns="http://www.w3.org/2000/svg">
<g clip-path="url(#clip0_205_2364)">
<path d="M83.5604 1.13281H76.8895V17.7332H83.5604C88.8652 17.7332 92.5395 14.4477 92.5395 9.44383C92.5395 4.43993 88.8652 1.13281 83.5604 1.13281ZM83.5604 14.6207H80.4921V4.23999H83.5604C87.0363 4.23999 88.8652 6.50417 88.8652 9.44383C88.8652 12.3835 86.9096 14.6207 83.5604 14.6207Z" fill="white"/>
<path d="M92.7984 17.7332H106.157V14.6693H96.401V10.811H105.981V7.77406H96.401V4.16974H106.157V1.13281H92.7984V17.7332Z" fill="white"/>
<path d="M128.66 7.57416C126.704 7.12565 125.283 6.7798 125.283 5.65582C125.283 4.66152 126.148 3.96443 127.767 3.96443C129.387 3.96443 131.243 4.53723 132.615 5.7801L134.62 3.19169C132.945 1.67863 130.714 0.884277 128.026 0.884277C124.043 0.884277 121.609 3.12144 121.609 5.88818C121.609 9.59518 125.162 10.3409 127.927 10.9677C129.882 11.4163 131.353 11.8377 131.353 13.0806C131.353 14.0263 130.389 14.9449 128.412 14.9449C126.076 14.9449 124.225 13.9236 123.035 12.7024L121.058 15.388C122.655 16.9551 124.991 18.0251 128.235 18.0251C132.802 18.0251 135.011 15.7339 135.011 12.6969C135.011 9.01157 131.458 8.19019 128.671 7.56876L128.66 7.57416Z" fill="white"/>
<path d="M51.6489 19.8735H44.5207V36.474H47.0602V30.0759H51.6544C55.1028 30.0759 57.0584 27.736 57.0584 24.9747C57.0584 22.2134 55.1304 19.8735 51.6544 19.8735H51.6489ZM51.3184 27.8873H47.0547V22.0621H51.3184C53.1473 22.0621 54.4363 23.2293 54.4363 24.9747C54.4363 26.7201 53.1417 27.8873 51.3184 27.8873Z" fill="white"/>
<path d="M80.3929 19.5977C75.347 19.5977 71.8711 23.256 71.8711 28.1843C71.8711 33.1125 75.347 36.7709 80.3929 36.7709C85.4389 36.7709 88.9148 33.1125 88.9148 28.1843C88.9148 23.256 85.4389 19.5977 80.3929 19.5977ZM80.3929 34.5553C76.7628 34.5553 74.4822 31.8156 74.4822 28.1843C74.4822 24.5529 76.7683 21.8132 80.3929 21.8132C84.0176 21.8132 86.3037 24.5259 86.3037 28.1843C86.3037 31.8426 83.968 34.5553 80.3929 34.5553Z" fill="white"/>
<path d="M59.9339 13.5347C61.3551 16.2852 64.2416 18.0306 67.8002 18.0306C72.9232 18.0306 76.6526 14.4479 76.6526 9.44403C76.6526 4.44013 72.9232 0.857422 67.8002 0.857422C62.6772 0.857422 58.9699 4.44013 58.9699 9.44403C58.9699 9.61155 58.9864 9.77907 58.9919 9.94658C56.9262 10.6869 56.7719 12.1297 56.524 12.481C55.8134 13.8481 54.2931 14.8964 52.4146 14.8964C49.473 14.8964 47.2365 12.5836 47.2365 9.44403C47.2365 6.30444 49.4675 3.99162 52.4146 3.99162C54.2931 3.99162 55.8134 5.06156 56.524 6.40711L59.6199 4.91566C58.43 2.84601 56.2762 0.857422 52.4201 0.857422C47.4734 0.857422 43.5402 4.34286 43.5402 9.44403C43.5402 14.5452 47.4734 18.0306 52.4201 18.0306C56.2762 18.0306 58.408 16.015 59.6254 13.9508C59.5813 13.9724 59.7135 13.7833 59.9394 13.5347H59.9339ZM67.8002 3.99162C70.9181 3.99162 72.9508 6.33145 72.9508 9.44403C72.9508 12.5566 70.9236 14.8964 67.8002 14.8964C64.6768 14.8964 62.6772 12.5296 62.6772 9.44403C62.6772 6.35847 64.6823 3.99162 67.8002 3.99162Z" fill="white"/>
<path d="M120.881 6.48256C120.881 3.397 118.727 1.13281 115.196 1.13281H107.281V6.63927H110.883V4.16974H114.662C116.105 4.16974 117.202 5.06677 117.202 6.46094C117.202 7.85512 116.111 8.75214 114.662 8.75214H107.281V17.7332H110.883V11.7837H113.522L116.844 17.7332H120.981L117.174 11.4108C119.003 10.9893 120.876 9.42221 120.876 6.48256H120.881Z" fill="white"/>
<path d="M70.841 24.9747C70.841 21.9162 68.632 19.8735 65.4095 19.8735H58.2813V25.3854H60.8208V22.0675H65.0845C66.9133 22.0675 68.2299 23.2347 68.2299 24.9801C68.2299 26.7255 66.9133 27.8927 65.0845 27.8927H58.2868V36.4794H60.8263V30.0813H63.9993L68.0316 36.4794H70.9732L66.6324 29.8327C68.7863 29.5571 70.8465 27.9684 70.8465 24.9801L70.841 24.9747Z" fill="white"/>
<path d="M29.0635 0.857422H7.63496C3.41829 0.857422 0 4.21065 0 8.34706V29.3678C0 33.5042 3.41829 36.8574 7.63496 36.8574H29.0635C33.2802 36.8574 36.6985 33.5042 36.6985 29.3678V8.34706C36.6985 4.21065 33.2802 0.857422 29.0635 0.857422Z" fill="url(#paint0_radial_205_2364)"/>
<path d="M10.4389 14.3509L18.3933 11.2761V6.87744L6.01543 12.0164V16.6421L18.3933 21.7541V17.404L10.4389 14.3509Z" fill="white"/>
<path d="M26.3037 19.0248L18.3492 22.0995V26.4982L30.7271 21.3592V16.7336L18.3492 11.6216V15.9716L26.3037 19.0248Z" fill="white"/>
<path d="M22.4587 27.2817H18.3492V31.313H22.4587V27.2817Z" fill="white"/>
</g>
<defs>
<radialGradient id="paint0_radial_205_2364" cx="0" cy="0" r="1" gradientUnits="userSpaceOnUse" gradientTransform="translate(3.7679 4.33205) scale(36.8638 36.1621)">
<stop stop-color="#BE4073"/>
<stop offset="1" stop-color="#823492"/>
</radialGradient>
<clipPath id="clip0_205_2364">
<rect width="135" height="36" fill="white" transform="translate(0 0.857422)"/>
</clipPath>
</defs>
</svg>
